<?xml version="1.0" encoding="UTF-8" standalone="no"?>
<!-- Created with Inkscape (http://www.inkscape.org/) by Toomai Glittershine for SmashWiki -->
<svg id="svg2" xmlns:rdf="http://www.w3.org/1999/02/22-rdf-syntax-ns#" xmlns="http://www.w3.org/2000/svg" version="1.1" xmlns:cc="http://creativecommons.org/ns#" xmlns:dc="http://purl.org/dc/elements/1.1/" height="256" width="256" viewBox="0 0 256 256">
	<metadata id="metadata7">
		<rdf:RDF>
			<cc:Work rdf:about="">
				<dc:format>image/svg+xml</dc:format>
				<dc:type rdf:resource="http://purl.org/dc/dcmitype/StillImage"/>
				<dc:title/>
			</cc:Work>
		</rdf:RDF>
	</metadata>
	<path id="mainsymbolpath" style="opacity:0.5;fill:#000000;fill-opacity:1;stroke:none" d="m 190.71576,157.35344 c 0.80758,-2.56299 2.10841,-8.3273 1.00585,-11.31583 -0.99617,-2.71289 -3.42375,-5.75463 -6.02059,-7.78083 l -5.59988,-4.35225 a 1.0203582,1.0203582 0 0 0 -0.92848,-0.16925 1.0300299,1.0300299 0 0 0 -0.66735,0.66735 l -9.84089,31.31678 -6.44615,20.52806 c -0.80275,2.56298 -2.10358,8.32728 -1.00585,11.31581 0.99617,2.70806 3.42375,5.75463 6.0206,7.78084 l 5.59987,4.35224 a 1.0203582,1.0203582 0 0 0 0.92848,0.16925 1.0300299,1.0300299 0 0 0 0.66735,-0.66734 l 9.84089,-31.33129 z m 17.86836,1.39754 c -0.43039,-1.3782 -1.72639,-4.00406 -3.7671,-5.5902 l -1.74574,-1.3637 a 1.0155224,1.0155224 0 0 0 -0.92847,-0.16925 1.0300299,1.0300299 0 0 0 -0.66734,0.66734 l -9.83606,31.31677 -8.16288,25.98287 c -0.75922,2.50011 -0.70603,4.1443 -0.27564,5.5225 0.43039,1.37821 1.72156,4.00406 3.76228,5.59021 l 1.74572,1.35887 a 1.0155224,1.0155224 0 0 0 1.59583,-0.48358 l 9.84089,-31.32645 8.15803,-25.9877 c 0.75922,-2.50013 0.70603,-4.13947 0.28048,-5.51768 z M 56.01397,90.280594 80.018986,108.99039 a 3.7090747,3.7090747 0 0 0 5.633731,-1.33469 l 3.360895,-7.03128 a 7.0361194,7.0361194 0 0 0 -1.634507,-8.187049 4.9422089,4.9422089 0 0 1 -0.425553,-0.29498 L 62.948537,73.437441 C 62.813134,73.331002 62.687403,73.210148 62.552,73.098924 a 3.6752239,3.6752239 0 0 0 -5.203344,1.600662 l -3.385073,7.031281 a 7.0457911,7.0457911 0 0 0 2.050387,8.549727 z M 77.117492,112.7575 56.279941,96.518809 a 3.7042388,3.7042388 0 0 0 -5.653075,1.33469 l -2.756418,5.769131 c -2.321195,5.42579 0.79791,9.33313 6.006089,13.39039 l 15.174807,11.82842 1.06388,0.82692 a 3.7090747,3.7090747 0 0 0 5.65791,-1.32986 l 3.360896,-7.03128 A 7.0554627,7.0554627 0 0 0 77.117492,112.7575 Z M 75.661911,49.176119 94.100892,63.548176 102.0945,47.420722 86.663403,35.394032 c -3.868656,-2.998202 -9.458866,-2.079397 -12.19594,3.549496 l -0.817254,1.687698 a 7.0457911,7.0457911 0 0 0 2.011702,8.544893 z m -9.807045,20.508719 19.657612,15.319884 c -0.256299,-1.861798 0,-4.352244 1.634508,-7.432661 l 4.83582,-9.778029 -19.188537,-14.947525 a 3.7042388,3.7042388 0 0 0 -5.633732,1.329856 l -3.385074,7.03128 a 7.0409552,7.0409552 0 0 0 1.600656,8.167699 c 0.183762,0.111248 0.333672,0.198273 0.478747,0.309496 z m 89.365964,44.818382 -0.96716,-0.73988 c -2.0262,-1.57648 -4.13462,-4.96639 -4.25553,-8.72865 l -0.81241,-24.986687 c -0.0435,-9.913438 -5.04376,-15.281194 -8.01779,-17.602388 L 119.22298,45.346148 c -5.94322,-4.637554 -8.77217,-2.533972 -10.91445,-0.03873 L 91.267105,79.690097 c -1.977852,3.767107 -1.015522,5.590215 -0.749553,5.986748 l 0.04353,0.0629 c 4.057254,3.133612 7.616419,4.439294 10.575938,3.868662 2.52913,-0.483583 4.81164,-2.417914 6.73629,-5.662748 l 7.09416,-13.313008 14.39139,11.219094 -8.27408,17.152662 c -3.46728,7.253723 -3.86866,13.709553 5.16949,21.359823 l -2.34538,4.10078 C 113.90842,116.2973 111.7323,107.78143 116.89212,96.978205 l 6.64441,-13.762748 -7.05062,-5.508 -4.54567,8.525554 c -2.67905,4.540835 -6.0206,7.215037 -9.91827,7.954922 -2.717726,0.517425 -5.624057,0.07252 -8.704474,-1.315352 a 11.741373,11.741373 0 0 1 -0.125803,9.758689 l -3.360888,7.02644 a 8.3176119,8.3176119 0 0 1 -5.62406,4.54569 c -0.159581,0.0387 -0.324,0.0581 -0.483581,0.0871 a 11.693015,11.693015 0 0 1 -0.415881,9.02364 l -3.385075,7.03128 a 8.3127761,8.3127761 0 0 1 -3.907344,3.93153 l 73.804296,57.54627 a 0.96716417,0.96716417 0 0 0 1.53295,-0.3917 c 0.16926,-0.53677 15.01524,-47.7489 15.35857,-48.89982 4.43445,-14.9717 -8.48202,-25.68305 -11.48991,-28.02842 z"/>
</svg>